<svg width="373" height="63" viewBox="0 0 373 63" fill="none" xmlns="http://www.w3.org/2000/svg">
<g filter="url(#filter0_di)">
<rect x="10" width="359" height="59" fill="#E3755F"/>
</g>
<path d="M46.75 36.75V21H51.25V34.5H60.25V36.75H46.75ZM64.75 36.75V34.5H62.5V27.75H64.75V25.5H76V27.75H78.25V34.5H76V36.75H64.75ZM67 34.5H73.75V27.75H67V34.5ZM82.75 39V36.75H91.75V34.5H82.75V32.25H80.5V27.75H82.75V25.5H96.25V36.75H94V39H82.75ZM85 32.25H91.75V27.75H85V32.25ZM118.75 36.75V34.5H123.25V23.25H118.75V21H132.25V23.25H127.75V34.5H132.25V36.75H118.75ZM134.5 36.75V25.5H148V27.75H150.25V36.75H145.75V27.75H139V36.75H134.5ZM159.25 36.75V27.75H154.75V25.5H159.25V21H163.75V25.5H168.25V27.75H163.75V36.75H159.25ZM172.75 36.75V34.5H170.5V27.75H172.75V25.5H184V27.75H186.25V34.5H184V36.75H172.75ZM175 34.5H181.75V27.75H175V34.5ZM211 36.75V34.5H208.75V32.25H206.5V25.5H208.75V23.25H211V21H222.25V23.25H213.25V25.5H211V32.25H213.25V34.5H217.75V30H215.5V27.75H222.25V36.75H211ZM231.25 23.25V21H235.75V23.25H231.25ZM226.75 36.75V34.5H231.25V27.75H229V25.5H235.75V34.5H240.25V36.75H226.75ZM249.25 36.75V27.75H244.75V25.5H249.25V21H253.75V25.5H258.25V27.75H253.75V36.75H249.25ZM260.5 36.75V21H265V27.75H271.75V21H276.25V36.75H271.75V30H265V36.75H260.5ZM280.75 36.75V34.5H278.5V25.5H283V34.5H289.75V25.5H294.25V36.75H280.75ZM298.75 36.75V34.5H296.5V21H301V25.5H310V27.75H312.25V34.5H310V36.75H298.75ZM301 34.5H307.75V27.75H301V34.5Z" fill="black"/>
<defs>
<filter id="filter0_di" x="10" y="0" width="363" height="63" filterUnits="userSpaceOnUse" color-interpolation-filters="sRGB">
<feFlood flood-opacity="0" result="BackgroundImageFix"/>
<feColorMatrix in="SourceAlpha" type="matrix" values="0 0 0 0 0 0 0 0 0 0 0 0 0 0 0 0 0 0 127 0"/>
<feOffset dx="4" dy="4"/>
<feColorMatrix type="matrix" values="0 0 0 0 0.890196 0 0 0 0 0.458824 0 0 0 0 0.372549 0 0 0 1 0"/>
<feBlend mode="normal" in2="BackgroundImageFix" result="effect1_dropShadow"/>
<feBlend mode="normal" in="SourceGraphic" in2="effect1_dropShadow" result="shape"/>
<feColorMatrix in="SourceAlpha" type="matrix" values="0 0 0 0 0 0 0 0 0 0 0 0 0 0 0 0 0 0 127 0" result="hardAlpha"/>
<feOffset dx="4" dy="4"/>
<feComposite in2="hardAlpha" operator="arithmetic" k2="-1" k3="1"/>
<feColorMatrix type="matrix" values="0 0 0 0 0.890196 0 0 0 0 0.458824 0 0 0 0 0.372549 0 0 0 1 0"/>
<feBlend mode="normal" in2="shape" result="effect2_innerShadow"/>
</filter>
</defs>
</svg>
