<svg width="363" height="63" viewBox="0 0 363 63" fill="none" xmlns="http://www.w3.org/2000/svg">
<g filter="url(#filter0_di)">
<rect width="359" height="59" fill="#94F769"/>
</g>
<path d="M50.75 36.75V21H55.25V34.5H64.25V36.75H50.75ZM68.75 36.75V34.5H66.5V27.75H68.75V25.5H80V27.75H82.25V34.5H80V36.75H68.75ZM71 34.5H77.75V27.75H71V34.5ZM86.75 39V36.75H95.75V34.5H86.75V32.25H84.5V27.75H86.75V25.5H100.25V36.75H98V39H86.75ZM89 32.25H95.75V27.75H89V32.25ZM122.75 36.75V34.5H127.25V23.25H122.75V21H136.25V23.25H131.75V34.5H136.25V36.75H122.75ZM138.5 36.75V25.5H152V27.75H154.25V36.75H149.75V27.75H143V36.75H138.5ZM163.25 36.75V27.75H158.75V25.5H163.25V21H167.75V25.5H172.25V27.75H167.75V36.75H163.25ZM176.75 36.75V34.5H174.5V27.75H176.75V25.5H188V27.75H190.25V34.5H188V36.75H176.75ZM179 34.5H185.75V27.75H179V34.5ZM215 36.75V34.5H212.75V32.25H210.5V25.5H212.75V23.25H215V21H226.25V23.25H217.25V25.5H215V32.25H217.25V34.5H221.75V30H219.5V27.75H226.25V36.75H215ZM235.25 23.25V21H239.75V23.25H235.25ZM230.75 36.75V34.5H235.25V27.75H233V25.5H239.75V34.5H244.25V36.75H230.75ZM253.25 36.75V27.75H248.75V25.5H253.25V21H257.75V25.5H262.25V27.75H257.75V36.75H253.25ZM264.5 36.75V21H269V27.75H275.75V21H280.25V36.75H275.75V30H269V36.75H264.5ZM284.75 36.75V34.5H282.5V25.5H287V34.5H293.75V25.5H298.25V36.75H284.75ZM302.75 36.75V34.5H300.5V21H305V25.5H314V27.75H316.25V34.5H314V36.75H302.75ZM305 34.5H311.75V27.75H305V34.5Z" fill="black"/>
<defs>
<filter id="filter0_di" x="0" y="0" width="363" height="63" filterUnits="userSpaceOnUse" color-interpolation-filters="sRGB">
<feFlood flood-opacity="0" result="BackgroundImageFix"/>
<feColorMatrix in="SourceAlpha" type="matrix" values="0 0 0 0 0 0 0 0 0 0 0 0 0 0 0 0 0 0 127 0"/>
<feOffset dx="4" dy="4"/>
<feColorMatrix type="matrix" values="0 0 0 0 0.580392 0 0 0 0 0.964706 0 0 0 0 0.411765 0 0 0 1 0"/>
<feBlend mode="normal" in2="BackgroundImageFix" result="effect1_dropShadow"/>
<feBlend mode="normal" in="SourceGraphic" in2="effect1_dropShadow" result="shape"/>
<feColorMatrix in="SourceAlpha" type="matrix" values="0 0 0 0 0 0 0 0 0 0 0 0 0 0 0 0 0 0 127 0" result="hardAlpha"/>
<feOffset dx="4" dy="4"/>
<feComposite in2="hardAlpha" operator="arithmetic" k2="-1" k3="1"/>
<feColorMatrix type="matrix" values="0 0 0 0 0.580392 0 0 0 0 0.964706 0 0 0 0 0.411765 0 0 0 1 0"/>
<feBlend mode="normal" in2="shape" result="effect2_innerShadow"/>
</filter>
</defs>
</svg>
